<mxfile host="app.diagrams.net" modified="2023-04-26T00:54:55.745Z" agent="Mozilla/5.0 (Macintosh; Intel Mac OS X 10.15; rv:109.0) Gecko/20100101 Firefox/112.0" etag="SbJw4zQ721ShlgSVfUJF" version="21.2.2" type="github">
  <diagram name="Página-1" id="ZmGExrFG6CMmJoZE8toH">
    <mxGraphModel dx="876" dy="540" grid="1" gridSize="10" guides="1" tooltips="1" connect="1" arrows="1" fold="1" page="1" pageScale="1" pageWidth="827" pageHeight="1169" math="0" shadow="0">
      <root>
        <mxCell id="0" />
        <mxCell id="1" parent="0" />
        <mxCell id="FHio_iPt0NJrmtDEtHA3-1" value="&lt;font color=&quot;#000000&quot;&gt;Posts&lt;/font&gt;" style="rounded=0;whiteSpace=wrap;html=1;fillColor=#dae8fc;strokeColor=#6c8ebf;" vertex="1" parent="1">
          <mxGeometry x="50" y="90" width="120" height="60" as="geometry" />
        </mxCell>
        <mxCell id="FHio_iPt0NJrmtDEtHA3-2" value="&lt;font color=&quot;#000000&quot;&gt;&lt;u&gt;IDPost&lt;/u&gt;&lt;/font&gt;" style="ellipse;whiteSpace=wrap;html=1;fillColor=#ffe6cc;strokeColor=#d79b00;" vertex="1" parent="1">
          <mxGeometry x="92" y="260" width="110" height="50" as="geometry" />
        </mxCell>
        <mxCell id="FHio_iPt0NJrmtDEtHA3-3" value="" style="endArrow=classic;html=1;rounded=0;exitX=0;exitY=1;exitDx=0;exitDy=0;" edge="1" parent="1" source="FHio_iPt0NJrmtDEtHA3-1">
          <mxGeometry width="50" height="50" relative="1" as="geometry">
            <mxPoint x="12" y="500" as="sourcePoint" />
            <mxPoint x="80" y="630" as="targetPoint" />
            <Array as="points">
              <mxPoint x="52" y="630" />
            </Array>
          </mxGeometry>
        </mxCell>
        <mxCell id="FHio_iPt0NJrmtDEtHA3-4" value="Etiquetas" style="ellipse;shape=doubleEllipse;margin=3;whiteSpace=wrap;html=1;align=center;" vertex="1" parent="1">
          <mxGeometry x="92" y="330" width="115" height="50" as="geometry" />
        </mxCell>
        <mxCell id="FHio_iPt0NJrmtDEtHA3-5" value="" style="endArrow=classic;html=1;rounded=0;" edge="1" parent="1">
          <mxGeometry width="50" height="50" relative="1" as="geometry">
            <mxPoint x="52" y="285" as="sourcePoint" />
            <mxPoint x="82" y="285" as="targetPoint" />
          </mxGeometry>
        </mxCell>
        <mxCell id="FHio_iPt0NJrmtDEtHA3-6" value="" style="endArrow=classic;html=1;rounded=0;" edge="1" parent="1">
          <mxGeometry width="50" height="50" relative="1" as="geometry">
            <mxPoint x="52" y="355" as="sourcePoint" />
            <mxPoint x="82" y="355" as="targetPoint" />
          </mxGeometry>
        </mxCell>
        <mxCell id="FHio_iPt0NJrmtDEtHA3-7" value="" style="endArrow=classic;html=1;rounded=0;" edge="1" parent="1">
          <mxGeometry width="50" height="50" relative="1" as="geometry">
            <mxPoint x="52" y="415" as="sourcePoint" />
            <mxPoint x="82" y="415" as="targetPoint" />
          </mxGeometry>
        </mxCell>
        <mxCell id="FHio_iPt0NJrmtDEtHA3-8" value="Título" style="ellipse;whiteSpace=wrap;html=1;" vertex="1" parent="1">
          <mxGeometry x="92" y="390" width="120" height="50" as="geometry" />
        </mxCell>
        <mxCell id="FHio_iPt0NJrmtDEtHA3-9" value="Fecha_publicacion" style="ellipse;whiteSpace=wrap;html=1;" vertex="1" parent="1">
          <mxGeometry x="92" y="461" width="120" height="50" as="geometry" />
        </mxCell>
        <mxCell id="FHio_iPt0NJrmtDEtHA3-10" value="Contenido" style="ellipse;whiteSpace=wrap;html=1;" vertex="1" parent="1">
          <mxGeometry x="92" y="531" width="120" height="50" as="geometry" />
        </mxCell>
        <mxCell id="FHio_iPt0NJrmtDEtHA3-11" value="Estatus" style="ellipse;whiteSpace=wrap;html=1;" vertex="1" parent="1">
          <mxGeometry x="92" y="600" width="120" height="50" as="geometry" />
        </mxCell>
        <mxCell id="FHio_iPt0NJrmtDEtHA3-12" value="" style="endArrow=classic;html=1;rounded=0;" edge="1" parent="1">
          <mxGeometry width="50" height="50" relative="1" as="geometry">
            <mxPoint x="51" y="485" as="sourcePoint" />
            <mxPoint x="81" y="485" as="targetPoint" />
          </mxGeometry>
        </mxCell>
        <mxCell id="FHio_iPt0NJrmtDEtHA3-13" value="" style="endArrow=classic;html=1;rounded=0;" edge="1" parent="1">
          <mxGeometry width="50" height="50" relative="1" as="geometry">
            <mxPoint x="52" y="555" as="sourcePoint" />
            <mxPoint x="82" y="555" as="targetPoint" />
          </mxGeometry>
        </mxCell>
        <mxCell id="FHio_iPt0NJrmtDEtHA3-14" value="&lt;font color=&quot;#000000&quot;&gt;&lt;u&gt;IDUser&lt;/u&gt;&lt;/font&gt;" style="ellipse;whiteSpace=wrap;html=1;fillColor=#ffe6cc;strokeColor=#d79b00;" vertex="1" parent="1">
          <mxGeometry x="290" y="260" width="110" height="50" as="geometry" />
        </mxCell>
        <mxCell id="FHio_iPt0NJrmtDEtHA3-15" value="" style="endArrow=classic;html=1;rounded=0;exitX=0;exitY=1;exitDx=0;exitDy=0;" edge="1" parent="1" source="FHio_iPt0NJrmtDEtHA3-41">
          <mxGeometry width="50" height="50" relative="1" as="geometry">
            <mxPoint x="249" y="230" as="sourcePoint" />
            <mxPoint x="278" y="560" as="targetPoint" />
            <Array as="points">
              <mxPoint x="249" y="560" />
            </Array>
          </mxGeometry>
        </mxCell>
        <mxCell id="FHio_iPt0NJrmtDEtHA3-16" value="" style="endArrow=classic;html=1;rounded=0;" edge="1" parent="1">
          <mxGeometry width="50" height="50" relative="1" as="geometry">
            <mxPoint x="250" y="285" as="sourcePoint" />
            <mxPoint x="280" y="285" as="targetPoint" />
          </mxGeometry>
        </mxCell>
        <mxCell id="FHio_iPt0NJrmtDEtHA3-17" value="" style="endArrow=classic;html=1;rounded=0;" edge="1" parent="1">
          <mxGeometry width="50" height="50" relative="1" as="geometry">
            <mxPoint x="250" y="355" as="sourcePoint" />
            <mxPoint x="280" y="355" as="targetPoint" />
          </mxGeometry>
        </mxCell>
        <mxCell id="FHio_iPt0NJrmtDEtHA3-18" value="" style="endArrow=classic;html=1;rounded=0;" edge="1" parent="1">
          <mxGeometry width="50" height="50" relative="1" as="geometry">
            <mxPoint x="250" y="420" as="sourcePoint" />
            <mxPoint x="280" y="420" as="targetPoint" />
          </mxGeometry>
        </mxCell>
        <mxCell id="FHio_iPt0NJrmtDEtHA3-19" value="Título" style="ellipse;whiteSpace=wrap;html=1;" vertex="1" parent="1">
          <mxGeometry x="290" y="395" width="120" height="50" as="geometry" />
        </mxCell>
        <mxCell id="FHio_iPt0NJrmtDEtHA3-20" value="Password" style="ellipse;whiteSpace=wrap;html=1;" vertex="1" parent="1">
          <mxGeometry x="290" y="461" width="120" height="50" as="geometry" />
        </mxCell>
        <mxCell id="FHio_iPt0NJrmtDEtHA3-21" value="&lt;div&gt;Nickname&lt;/div&gt;" style="ellipse;whiteSpace=wrap;html=1;" vertex="1" parent="1">
          <mxGeometry x="290" y="531" width="120" height="50" as="geometry" />
        </mxCell>
        <mxCell id="FHio_iPt0NJrmtDEtHA3-22" value="" style="endArrow=classic;html=1;rounded=0;" edge="1" parent="1">
          <mxGeometry width="50" height="50" relative="1" as="geometry">
            <mxPoint x="249" y="485" as="sourcePoint" />
            <mxPoint x="279" y="485" as="targetPoint" />
          </mxGeometry>
        </mxCell>
        <mxCell id="FHio_iPt0NJrmtDEtHA3-23" value="&lt;font color=&quot;#000000&quot;&gt;&lt;u&gt;IDComment&lt;/u&gt;&lt;/font&gt;" style="ellipse;whiteSpace=wrap;html=1;fillColor=#ffe6cc;strokeColor=#d79b00;" vertex="1" parent="1">
          <mxGeometry x="491" y="260" width="110" height="50" as="geometry" />
        </mxCell>
        <mxCell id="FHio_iPt0NJrmtDEtHA3-24" value="" style="endArrow=classic;html=1;rounded=0;exitX=0;exitY=1;exitDx=0;exitDy=0;" edge="1" parent="1" source="FHio_iPt0NJrmtDEtHA3-42">
          <mxGeometry width="50" height="50" relative="1" as="geometry">
            <mxPoint x="450" y="230" as="sourcePoint" />
            <mxPoint x="480" y="560" as="targetPoint" />
            <Array as="points">
              <mxPoint x="450" y="560" />
            </Array>
          </mxGeometry>
        </mxCell>
        <mxCell id="FHio_iPt0NJrmtDEtHA3-25" value="" style="endArrow=classic;html=1;rounded=0;" edge="1" parent="1">
          <mxGeometry width="50" height="50" relative="1" as="geometry">
            <mxPoint x="451" y="285" as="sourcePoint" />
            <mxPoint x="481" y="285" as="targetPoint" />
          </mxGeometry>
        </mxCell>
        <mxCell id="FHio_iPt0NJrmtDEtHA3-26" value="" style="endArrow=classic;html=1;rounded=0;" edge="1" parent="1">
          <mxGeometry width="50" height="50" relative="1" as="geometry">
            <mxPoint x="451" y="355" as="sourcePoint" />
            <mxPoint x="481" y="355" as="targetPoint" />
          </mxGeometry>
        </mxCell>
        <mxCell id="FHio_iPt0NJrmtDEtHA3-27" value="" style="endArrow=classic;html=1;rounded=0;" edge="1" parent="1">
          <mxGeometry width="50" height="50" relative="1" as="geometry">
            <mxPoint x="451" y="419" as="sourcePoint" />
            <mxPoint x="481" y="419" as="targetPoint" />
          </mxGeometry>
        </mxCell>
        <mxCell id="FHio_iPt0NJrmtDEtHA3-28" value="&lt;div&gt;ID_post&lt;/div&gt;" style="ellipse;whiteSpace=wrap;html=1;" vertex="1" parent="1">
          <mxGeometry x="491" y="394" width="120" height="50" as="geometry" />
        </mxCell>
        <mxCell id="FHio_iPt0NJrmtDEtHA3-29" value="IDUser" style="ellipse;whiteSpace=wrap;html=1;" vertex="1" parent="1">
          <mxGeometry x="491" y="461" width="120" height="50" as="geometry" />
        </mxCell>
        <mxCell id="FHio_iPt0NJrmtDEtHA3-30" value="Reacciones" style="ellipse;whiteSpace=wrap;html=1;" vertex="1" parent="1">
          <mxGeometry x="491" y="531" width="120" height="50" as="geometry" />
        </mxCell>
        <mxCell id="FHio_iPt0NJrmtDEtHA3-31" value="" style="endArrow=classic;html=1;rounded=0;" edge="1" parent="1">
          <mxGeometry width="50" height="50" relative="1" as="geometry">
            <mxPoint x="450" y="485" as="sourcePoint" />
            <mxPoint x="480" y="485" as="targetPoint" />
          </mxGeometry>
        </mxCell>
        <mxCell id="FHio_iPt0NJrmtDEtHA3-32" value="&lt;font color=&quot;#000000&quot;&gt;&lt;u&gt;IDCategory&lt;/u&gt;&lt;/font&gt;" style="ellipse;whiteSpace=wrap;html=1;fillColor=#ffe6cc;strokeColor=#d79b00;" vertex="1" parent="1">
          <mxGeometry x="680" y="260" width="110" height="50" as="geometry" />
        </mxCell>
        <mxCell id="FHio_iPt0NJrmtDEtHA3-33" value="" style="endArrow=classic;html=1;rounded=0;exitX=0;exitY=1;exitDx=0;exitDy=0;" edge="1" parent="1" source="FHio_iPt0NJrmtDEtHA3-43">
          <mxGeometry width="50" height="50" relative="1" as="geometry">
            <mxPoint x="639" y="230" as="sourcePoint" />
            <mxPoint x="668" y="420" as="targetPoint" />
            <Array as="points">
              <mxPoint x="639" y="420" />
            </Array>
          </mxGeometry>
        </mxCell>
        <mxCell id="FHio_iPt0NJrmtDEtHA3-34" value="" style="endArrow=classic;html=1;rounded=0;" edge="1" parent="1">
          <mxGeometry width="50" height="50" relative="1" as="geometry">
            <mxPoint x="640" y="285" as="sourcePoint" />
            <mxPoint x="670" y="285" as="targetPoint" />
          </mxGeometry>
        </mxCell>
        <mxCell id="FHio_iPt0NJrmtDEtHA3-35" value="" style="endArrow=classic;html=1;rounded=0;" edge="1" parent="1">
          <mxGeometry width="50" height="50" relative="1" as="geometry">
            <mxPoint x="640" y="355" as="sourcePoint" />
            <mxPoint x="670" y="355" as="targetPoint" />
          </mxGeometry>
        </mxCell>
        <mxCell id="FHio_iPt0NJrmtDEtHA3-36" value="Tema" style="ellipse;whiteSpace=wrap;html=1;" vertex="1" parent="1">
          <mxGeometry x="678" y="329" width="120" height="50" as="geometry" />
        </mxCell>
        <mxCell id="FHio_iPt0NJrmtDEtHA3-37" value="Etiquetas" style="ellipse;whiteSpace=wrap;html=1;" vertex="1" parent="1">
          <mxGeometry x="678" y="394" width="120" height="50" as="geometry" />
        </mxCell>
        <mxCell id="FHio_iPt0NJrmtDEtHA3-38" value="Email" style="ellipse;whiteSpace=wrap;html=1;" vertex="1" parent="1">
          <mxGeometry x="290" y="330" width="120" height="50" as="geometry" />
        </mxCell>
        <mxCell id="FHio_iPt0NJrmtDEtHA3-39" value="Fecha_publicacion" style="ellipse;whiteSpace=wrap;html=1;" vertex="1" parent="1">
          <mxGeometry x="491" y="329" width="120" height="50" as="geometry" />
        </mxCell>
        <mxCell id="FHio_iPt0NJrmtDEtHA3-40" value="" style="endArrow=classic;html=1;rounded=0;exitX=1;exitY=1;exitDx=0;exitDy=0;entryX=0.5;entryY=0;entryDx=0;entryDy=0;" edge="1" parent="1" source="FHio_iPt0NJrmtDEtHA3-1" target="FHio_iPt0NJrmtDEtHA3-41">
          <mxGeometry width="50" height="50" relative="1" as="geometry">
            <mxPoint x="400" y="400" as="sourcePoint" />
            <mxPoint x="310" y="180" as="targetPoint" />
            <Array as="points">
              <mxPoint x="310" y="150" />
            </Array>
          </mxGeometry>
        </mxCell>
        <mxCell id="FHio_iPt0NJrmtDEtHA3-41" value="&lt;font color=&quot;#000000&quot;&gt;Usuarios&lt;/font&gt;" style="rounded=1;whiteSpace=wrap;html=1;fillColor=#dae8fc;strokeColor=#6c8ebf;" vertex="1" parent="1">
          <mxGeometry x="249" y="190" width="120" height="40" as="geometry" />
        </mxCell>
        <mxCell id="FHio_iPt0NJrmtDEtHA3-42" value="&lt;font color=&quot;#000000&quot;&gt;Comentarios&lt;/font&gt;" style="rounded=1;whiteSpace=wrap;html=1;fillColor=#dae8fc;strokeColor=#6c8ebf;" vertex="1" parent="1">
          <mxGeometry x="450" y="190" width="120" height="40" as="geometry" />
        </mxCell>
        <mxCell id="FHio_iPt0NJrmtDEtHA3-43" value="&lt;font color=&quot;#000000&quot;&gt;Categorias&lt;/font&gt;" style="rounded=1;whiteSpace=wrap;html=1;fillColor=#dae8fc;strokeColor=#6c8ebf;" vertex="1" parent="1">
          <mxGeometry x="640" y="190" width="120" height="40" as="geometry" />
        </mxCell>
        <mxCell id="FHio_iPt0NJrmtDEtHA3-44" value="" style="endArrow=classic;html=1;rounded=0;exitX=1;exitY=0.5;exitDx=0;exitDy=0;entryX=0.5;entryY=0;entryDx=0;entryDy=0;" edge="1" parent="1" source="FHio_iPt0NJrmtDEtHA3-1" target="FHio_iPt0NJrmtDEtHA3-42">
          <mxGeometry width="50" height="50" relative="1" as="geometry">
            <mxPoint x="170" y="120" as="sourcePoint" />
            <mxPoint x="310" y="150" as="targetPoint" />
            <Array as="points">
              <mxPoint x="510" y="120" />
            </Array>
          </mxGeometry>
        </mxCell>
        <mxCell id="FHio_iPt0NJrmtDEtHA3-45" value="" style="endArrow=classic;html=1;rounded=0;exitX=1;exitY=1;exitDx=0;exitDy=0;entryX=0.5;entryY=0;entryDx=0;entryDy=0;" edge="1" parent="1" target="FHio_iPt0NJrmtDEtHA3-43">
          <mxGeometry width="50" height="50" relative="1" as="geometry">
            <mxPoint x="170" y="90" as="sourcePoint" />
            <mxPoint x="310" y="120" as="targetPoint" />
            <Array as="points">
              <mxPoint x="700" y="90" />
            </Array>
          </mxGeometry>
        </mxCell>
      </root>
    </mxGraphModel>
  </diagram>
</mxfile>
